<svg xmlns="http://www.w3.org/2000/svg" xmlns:xlink="http://www.w3.org/1999/xlink" viewBox="0 0 246.97 246.97"><defs><style>.cls-1{fill:url(#linear-gradient);}.cls-2{fill:none;stroke:#f2ede9;stroke-miterlimit:10;stroke-width:2px;}</style><linearGradient id="linear-gradient" x1="237.25" y1="163.09" x2="237.34" y2="406.64" gradientUnits="userSpaceOnUse"><stop offset="0" stop-color="#fff"/><stop offset="0.33" stop-color="#faf8f6"/><stop offset="1" stop-color="#f2ede9"/></linearGradient></defs><title>art-cc</title><g id="Ebene_1" data-name="Ebene 1"><g id="_Group_" data-name="&lt;Group&gt;"><path class="cls-1" d="M224,168.33a18.24,18.24,0,0,1,26.68,0c7.34,7.73,21.7,11.58,31.93,8.55a18.24,18.24,0,0,1,23.11,13.34c2.49,10.37,13,20.88,23.37,23.37a18.24,18.24,0,0,1,13.34,23.11c-3,10.22.82,24.59,8.55,31.93a18.24,18.24,0,0,1,0,26.68c-7.73,7.34-11.58,21.7-8.55,31.93A18.24,18.24,0,0,1,329,350.35c-10.37,2.49-20.88,13-23.37,23.37a18.24,18.24,0,0,1-23.11,13.34c-10.22-3-24.59.82-31.93,8.55a18.24,18.24,0,0,1-26.68,0c-7.34-7.73-21.7-11.58-31.93-8.55a18.24,18.24,0,0,1-23.11-13.34c-2.49-10.37-13-20.88-23.37-23.37a18.24,18.24,0,0,1-13.34-23.11c3-10.22-.82-24.59-8.55-31.93a18.24,18.24,0,0,1,0-26.68c7.73-7.34,11.58-21.7,8.55-31.93a18.24,18.24,0,0,1,13.34-23.11c10.37-2.49,20.88-13,23.37-23.37A18.24,18.24,0,0,1,192,176.88C202.25,179.91,216.61,176.06,224,168.33Z" transform="translate(-113.81 -158.49)"/></g></g><g id="Ebene_1_Kopie" data-name="Ebene 1 Kopie"><g id="_Group_2" data-name="&lt;Group&gt;"><path class="cls-2" d="M223.61,165.44a18.71,18.71,0,0,1,27.36,0c7.52,7.93,22.26,11.88,32.74,8.77a18.71,18.71,0,0,1,23.7,13.68c2.55,10.63,13.34,21.42,24,24a18.71,18.71,0,0,1,13.68,23.7c-3.11,10.48.84,25.21,8.77,32.74a18.71,18.71,0,0,1,0,27.36c-7.93,7.52-11.88,22.26-8.77,32.74a18.71,18.71,0,0,1-13.68,23.7c-10.63,2.55-21.42,13.34-24,24a18.71,18.71,0,0,1-23.7,13.68c-10.48-3.11-25.21.84-32.74,8.77a18.71,18.71,0,0,1-27.36,0c-7.52-7.93-22.26-11.88-32.74-8.77a18.71,18.71,0,0,1-23.7-13.68c-2.55-10.63-13.34-21.42-24-24a18.71,18.71,0,0,1-13.68-23.7c3.11-10.48-.84-25.21-8.77-32.74a18.71,18.71,0,0,1,0-27.36c7.93-7.52,11.88-22.26,8.77-32.74a18.71,18.71,0,0,1,13.68-23.7c10.63-2.55,21.42-13.34,24-24a18.71,18.71,0,0,1,23.7-13.68C201.35,177.31,216.09,173.37,223.61,165.44Z" transform="translate(-113.81 -158.49)"/></g></g></svg>