<svg id="Ebene_1_Kopie" data-name="Ebene 1 Kopie" xmlns="http://www.w3.org/2000/svg" viewBox="0 0 246.97 246.97"><defs><style>.cls-1{fill:none;stroke:#cabebc;stroke-miterlimit:10;stroke-width:2px;}</style></defs><title>hero-border</title><g id="_Group_" data-name="&lt;Group&gt;"><path id="_Path_" data-name="&lt;Path&gt;" class="cls-1" d="M223.61,165.44a18.71,18.71,0,0,1,27.36,0c7.52,7.93,22.26,11.88,32.74,8.77a18.71,18.71,0,0,1,23.7,13.68c2.55,10.63,13.34,21.42,24,24a18.71,18.71,0,0,1,13.68,23.7c-3.11,10.48.84,25.21,8.77,32.74a18.71,18.71,0,0,1,0,27.36c-7.93,7.52-11.88,22.26-8.77,32.74a18.71,18.71,0,0,1-13.68,23.7c-10.63,2.55-21.42,13.34-24,24a18.71,18.71,0,0,1-23.7,13.68c-10.48-3.11-25.21.84-32.74,8.77a18.71,18.71,0,0,1-27.36,0c-7.52-7.93-22.26-11.88-32.74-8.77a18.71,18.71,0,0,1-23.7-13.68c-2.55-10.63-13.34-21.42-24-24a18.71,18.71,0,0,1-13.68-23.7c3.11-10.48-.84-25.21-8.77-32.74a18.71,18.71,0,0,1,0-27.36c7.93-7.52,11.88-22.26,8.77-32.74a18.71,18.71,0,0,1,13.68-23.7c10.63-2.55,21.42-13.34,24-24a18.71,18.71,0,0,1,23.7-13.68C201.35,177.31,216.09,173.37,223.61,165.44Z" transform="translate(-113.81 -158.49)"/></g></svg>