<svg id="objects" xmlns="http://www.w3.org/2000/svg" viewBox="0 0 216.17 194.76"><defs><style>.cls-1{fill:#c8b6ad;}</style></defs><title>hero-coffee</title><path class="cls-1" d="M157.73,135.36a.68.68,0,0,0-.69,1.18c18.59,13.24,38.61,30.21,42,54-15.82-12.19-33.61-21.52-49.29-33.92-13.15-10.4-29-22.06-34.73-38.45-.35-1-2.11-.91-2,.26,2,15.09,18.21,28.26,29.29,37.09,18.28,14.56,38,26.29,57.64,38.9a1.26,1.26,0,0,0,1.88-1.08C199.59,168.58,178.92,146.65,157.73,135.36Z" transform="translate(-92.61 -57.64)"/><path class="cls-1" d="M195.25,102.8a.8.8,0,0,0-.81,1.38c11.42,8.52,22,16.33,29.56,28.71,6.29,10.3,9,22.1,9.69,34a81.3,81.3,0,0,0-8.53-17.51A76.71,76.71,0,0,0,207.27,131c-9.6-7.16-18.57-15-27.79-22.6-8.83-7.31-19.21-13.22-27.42-21.19-.67-.65-1.53.3-1,1,6.11,7.86,14.79,13.45,22.44,19.68,8.45,6.89,16.41,14.38,25.08,21,7.53,5.74,14.81,11.16,20.88,18.5a93.22,93.22,0,0,1,14.44,25.47.93.93,0,0,0,1.83-.25C235.38,143.47,221.54,116.79,195.25,102.8Z" transform="translate(-92.61 -57.64)"/><path class="cls-1" d="M234.48,80.14c-1.17-.5-2.2,1.12-1,1.75,17.52,9.4,40.28,23,38.38,44.89C266,114,250.51,104,239.2,98.09a.47.47,0,0,0-.47.81,212.75,212.75,0,0,1,18,14.75c5.85,5.39,12.52,12.11,14,20.24.29,1.66,2.74,1.47,3.16,0C281.52,107,256,89.4,234.48,80.14Z" transform="translate(-92.61 -57.64)"/><path class="cls-1" d="M209,57.64h-.83a.06.06,0,0,0,0,.12H209A.06.06,0,0,0,209,57.64Z" transform="translate(-92.61 -57.64)"/><path class="cls-1" d="M285.65,88.27a60.58,60.58,0,0,0-26.85-18.44c-7.64-2.69-16.36-3.77-24.33-5.17a102.16,102.16,0,0,0-23-1.21.92.92,0,0,0,0,1.83A234.83,234.83,0,0,1,240,69.46c9.27,1.81,18.4,3.49,26.86,7.86,12.64,6.53,23,20.23,29.39,32.57a68.34,68.34,0,0,1,6.33,18c-4.29-6.51-10.48-12.22-15.47-16.79-.84-.77-2.42.29-1.65,1.28,3.65,4.73,7.21,9.47,10.61,14.37,4.38,6.31,5.06,12.81,7.54,19.75a1.94,1.94,0,0,0,.38.62q-.2,4-.78,8.08c-2.77-9.17-9-17.9-13.42-25.58-.7-1.21-2.47-.15-1.85,1.08,3.16,6.29,6.48,12.43,8.92,19.05,2.32,6.31,2.43,12.56,3.31,19.09q-1.25,4.14-2.85,8.16c-.72-11.27-5.81-23-10.22-32.28-.41-.86-1.84-.25-1.53.65,2.3,6.67,4.81,13.18,6.4,20.08,2,8.87.24,17.79-2,26.35-1.37,2.29-2.81,4.51-4.33,6.66-25.77,36.36-76.26,55.52-120.1,46.45-6.82-10.6-8.6-22.35-9.15-34.84a.72.72,0,0,0-1.44,0c-.45,12,0,23.13,5.28,33.6-1.89-.5-3.76-1-5.62-1.63l0-.06c-12.84-14.65-20.74-30.62-22.37-50.21-.07-.84-1.34-.87-1.33,0,.27,17.66,5.12,33.78,15.89,47.32a91.67,91.67,0,0,1-16.58-9.2,2.26,2.26,0,0,0-.4-2.24c-11.19-13.64-11.26-33.29-10.84-50,0-.94-1.37-.92-1.44,0-1.17,15-2.6,31.67,4.11,45.38a74.81,74.81,0,0,1-14.13-18,1.94,1.94,0,0,0,.16-1.31c-1.72-7.62-2.77-14.05-1.65-21.88.8-5.56,2.24-11.09,1.77-16.72a.35.35,0,0,0-.69-.09c-2.81,7.35-5.78,16.58-6.06,25.37-6.87-20.62-6.12-44.08.9-64.75,6.65-19.6,19.49-35.42,36.52-47,17.45-11.86,37.21-16.85,58-18,.46,0,.61-.76.11-.84-27.67-4.8-58,11.35-76.91,30.46-19.28,19.46-28.07,48.39-27,75.35s13.56,52.59,35.56,68.42c22.3,16.05,51.36,21.05,78.21,17.09,48.62-7.17,95.62-42.91,101.71-94C311.27,131.23,302.23,107.74,285.65,88.27Z" transform="translate(-92.61 -57.64)"/><path class="cls-1" d="M173.8,161.82c-25-7.1-39.57-28.48-59.06-43.9-.58-.46-1.41.33-.83.83,9.91,8.4,18.72,18,28.45,26.59,8.81,7.78,19.25,15.69,31.15,17.51C174.18,162.95,174.48,162,173.8,161.82Z" transform="translate(-92.61 -57.64)"/><path class="cls-1" d="M210.07,126.59c-10.36-11-20.29-23.39-32.92-31.85-.29-.19-.64.26-.37.48,11.88,9.7,20.86,22.28,32.47,32.19A.58.58,0,0,0,210.07,126.59Z" transform="translate(-92.61 -57.64)"/><path class="cls-1" d="M139.79,75c.06-.14-.18-.24-.24-.1-4.78,10.27-10.11,20.84-5.5,32.14.14.34.68.21.56-.15C130.83,95.45,135.41,85.52,139.79,75Z" transform="translate(-92.61 -57.64)"/><path class="cls-1" d="M152.1,67.43c-6.2,6.39-9,14.89-10.12,23.56,0,.39.61.48.69.09,1.76-8.63,4.57-16.22,9.94-23.26C152.84,67.53,152.35,67.17,152.1,67.43Z" transform="translate(-92.61 -57.64)"/><path class="cls-1" d="M175.6,60.79c-7.2,2.84-11.51,10.87-12.93,18.12-.08.41.53.59.63.17,1.74-7.17,5.62-14.5,12.46-17.9C176,61.08,175.84,60.7,175.6,60.79Z" transform="translate(-92.61 -57.64)"/><path class="cls-1" d="M191.44,60.11A24.53,24.53,0,0,0,182.62,77c0,.42.68.52.74.1a28.58,28.58,0,0,1,8.53-16.54C192.19,60.26,191.75,59.86,191.44,60.11Z" transform="translate(-92.61 -57.64)"/><path class="cls-1" d="M163.34,64.68c-4.31,4.21-8.13,8.85-9.36,14.89a.36.36,0,0,0,.69.19c1.67-5.71,5.25-10.21,9.31-14.44A.45.45,0,0,0,163.34,64.68Z" transform="translate(-92.61 -57.64)"/><path class="cls-1" d="M130.64,114.25a36.64,36.64,0,0,1-3.1-16.7c.29-4.7,2-9.2,2.21-13.88,0-.1-.14-.11-.17,0-3.74,10-4.61,21.28.47,30.85C130.22,114.81,130.78,114.59,130.64,114.25Z" transform="translate(-92.61 -57.64)"/><path class="cls-1" d="M282.6,161.51c-.16-.31-.7-.09-.57.24,3.49,9.12,1.9,19.59-.38,28.8a84.55,84.55,0,0,1-5.43,15.17c-1.81,3.9-4.52,7.18-6.47,10.94a.68.68,0,0,0,1.07.82c3.48-2.89,5.59-8.07,7.42-12.09a87.26,87.26,0,0,0,5.28-15.77C285.65,180.68,286.89,170,282.6,161.51Z" transform="translate(-92.61 -57.64)"/><path class="cls-1" d="M100.42,152.84c-2.76,7.4-6,15.48-6,23.49,0,.6.94.75,1.06.14,1.62-8,3.73-15.53,6.05-23.32C101.79,152.41,100.69,152.14,100.42,152.84Z" transform="translate(-92.61 -57.64)"/><path class="cls-1" d="M157.58,245.5c-2.24-5.4-4.72-10.61-6.44-16.21-2-6.61-2.69-13.42-3.14-20.3a.34.34,0,0,0-.69,0,70.63,70.63,0,0,0,9.15,37C156.8,246.56,157.85,246.15,157.58,245.5Z" transform="translate(-92.61 -57.64)"/><path class="cls-1" d="M142.56,240.77c-12.27-12.48-18.79-30.22-16-47.72,0-.24-.32-.35-.38-.1-3.75,16.74,2.75,37.13,16,48.28C142.41,241.49,142.85,241.07,142.56,240.77Z" transform="translate(-92.61 -57.64)"/><path class="cls-1" d="M181.9,250.09c-7.86-6.54-11.64-15.24-13.41-25.14,0-.19-.36-.15-.34,0,1.16,10,5.14,19.48,13.34,25.62C181.8,250.85,182.19,250.34,181.9,250.09Z" transform="translate(-92.61 -57.64)"/><path class="cls-1" d="M194.46,249.44c-10.05-4.69-14.67-13.66-19.31-23.2-.09-.19-.42-.05-.34.14,3.54,9.29,9,20.63,19.44,23.54C194.54,250,194.74,249.57,194.46,249.44Z" transform="translate(-92.61 -57.64)"/></svg>
